<svg id="Слой_6" data-name="Слой 6" xmlns="http://www.w3.org/2000/svg" viewBox="0 0 1451.34 1451.34"><defs><style>.cls-1{fill:#fff;}</style></defs><title>heart</title><path class="cls-1" d="M1015.68,351.29c40.19,0,75.62,5.31,105.29,15.8,27,9.53,49.35,23.2,68.39,41.79,39,38.09,58,92.76,58,167.12,0,35.45-9.43,71.23-28.84,109.37-21.48,42.21-55.15,86.44-100.09,131.48L725.71,1195,331.63,814.85l-3.37-3.25-3.43-2.74c-.53-.46-3.44-3-10-9.74-2.73-2.82-11.27-12.13-32.16-38.24a516.38,516.38,0,0,1-39.52-56.63c-10-16.73-19.43-38.23-27.93-63.92C207.79,617.78,204,596.14,204,576c0-74.36,19-129,58-167.12,19-18.59,41.4-32.25,68.39-41.79,29.67-10.48,65.09-15.8,105.28-15.8,17.77,0,36.67,3.29,56.13,9.77A256.87,256.87,0,0,1,551.73,390c23,15.1,42.73,29.25,58.73,42.05A544.6,544.6,0,0,1,655,471.89l70.71,70.67,70.69-70.68A543.67,543.67,0,0,1,840.88,432h0c16.15-12.91,35.9-27,58.7-42l0,0,0,0a256.25,256.25,0,0,1,59.88-28.91c19.48-6.49,38.38-9.78,56.16-9.78m0-100q-43,0-87.77,14.91a354.72,354.72,0,0,0-83.25,40.25Q806.14,331.77,778.4,354a641.18,641.18,0,0,0-52.72,47.18A642,642,0,0,0,672.94,354q-27.76-22.2-66.27-47.52a355.21,355.21,0,0,0-83.26-40.25q-44.75-14.91-87.77-14.91-155.42,0-243.53,86T104,576q0,46.49,16.31,95.74t37.12,84a613.89,613.89,0,0,0,47.18,67.65q26.37,33,38.51,45.44t19.08,18L695.14,1304.5a43.55,43.55,0,0,0,61.06,0l432.25-416.3Q1347.34,729.34,1347.34,576q0-152.64-88.11-238.67t-243.54-86Z"/></svg>