<svg id="Слой_17" data-name="Слой 17" xmlns="http://www.w3.org/2000/svg" viewBox="0 0 1451.34 1451.34"><defs><style>.cls-1{fill:#7cb8e2;}.cls-2{fill:#fff;}</style></defs><title>point-other</title><path class="cls-1" d="M725.67,1364.78A631.86,631.86,0,0,1,479.81,151.05,631.85,631.85,0,0,1,971.53,1315.16,627.74,627.74,0,0,1,725.67,1364.78Z"/><path class="cls-2" d="M725.67,151.44a578.32,578.32,0,0,1,325.15,99.28,583.67,583.67,0,0,1,210.85,256,580.81,580.81,0,0,1-53.61,551.54,583.6,583.6,0,0,1-256,210.85,580.8,580.8,0,0,1-551.53-53.61,583.6,583.6,0,0,1-210.85-256A580.76,580.76,0,0,1,243.28,408a583.77,583.77,0,0,1,256-210.86,578,578,0,0,1,226.38-45.66m0-100C349.19,51.44,44,356.63,44,733.11s305.19,681.67,681.67,681.67,681.67-305.2,681.67-681.67S1102.15,51.44,725.67,51.44Z"/></svg>