<svg id="Слой_1" data-name="Слой 1" xmlns="http://www.w3.org/2000/svg" viewBox="0 0 193.5 115"><defs><style>.cls-1{fill:#fff;}</style></defs><title>logo-buro-77</title><path class="cls-1" d="M52.28,72.3a7.69,7.69,0,0,1-4.91,7.29c4.43,1.35,6,6,6,8.42,0,8.42-6.32,11.12-14.15,11.12H21.34V61.34H39.27C46.72,61.34,52.28,64.69,52.28,72.3ZM28.36,76.52H39.27c4.48,0,5.94-1.89,5.94-4,0-1.73-1.4-4.64-5.94-4.64H28.36Zm0,16H39.27c2.92,0,7.07-1,7.07-4.54,0-3.4-4.16-5.18-7.07-5.18H28.36Z"/><path class="cls-1" d="M91.59,61.4V83.05c0,11.18-6.86,16.9-16.36,16.9-9.07,0-16.79-5.51-16.79-16.9V61.4h7.07V83.05c0,6.8,3.89,10.42,9.77,10.42s9.23-3.94,9.23-10.42V61.4Z"/><path class="cls-1" d="M132.09,99.14h-8.48l-11-12.64h-6.86V99.14H98.61V61.29c6,0,12,.05,18,.05,8.91.05,13.61,6,13.61,12.53,0,5.18-2.38,10.42-9.56,11.88l11.45,12.91ZM105.74,68v12.1h10.85c4.54,0,6.48-3,6.48-6s-2-6-6.48-6Z"/><path class="cls-1" d="M172.16,80.46c-.11,9.77-6.1,19.55-19.39,19.55s-19.44-9.56-19.44-19.49,6.37-19.93,19.44-19.93S172.27,70.58,172.16,80.46Zm-31.81.16c.16,6.21,3.51,12.85,12.42,12.85s12.26-6.7,12.37-12.91c.11-6.37-3.46-13.5-12.37-13.5S140.19,74.25,140.35,80.62Z"/><rect class="cls-1" x="98.71" y="13.02" width="71.59" height="6.58"/><rect class="cls-1" x="148.23" y="28.5" width="37.56" height="6.58" transform="translate(198.81 -135.22) rotate(90)"/><rect class="cls-1" x="113.57" y="34.64" width="35.24" height="6.58"/><rect class="cls-1" x="137.56" y="39.31" width="15.93" height="6.58" transform="translate(188.13 -102.92) rotate(90)"/></svg>